<svg width="64" height="64" viewBox="0 0 64 64" fill="none" xmlns="http://www.w3.org/2000/svg">
<path d="M32.0006 2.62691C31.4573 2.62691 30.906 2.63104 30.3665 2.66366C29.1581 2.73016 27.9699 2.89616 26.8046 3.10429C26.6756 3.12729 26.5476 3.15304 26.4191 3.17779C26.3089 3.19904 26.1984 3.21029 26.0886 3.23279C26.0274 3.24341 25.9661 3.25654 25.9051 3.26954C25.8441 3.28254 25.7826 3.29291 25.7214 3.30629C25.0795 3.44616 24.4374 3.60254 23.812 3.78366C23.7507 3.80091 23.6894 3.82054 23.6283 3.83866C23.5969 3.84804 23.568 3.86554 23.5366 3.87541C23.446 3.90254 23.3514 3.92079 23.2611 3.94879C23.0889 4.00716 22.9196 4.07504 22.747 4.13241C22.3836 4.25304 22.0208 4.36529 21.6637 4.49966C21.6196 4.51279 21.5791 4.53929 21.5352 4.55466C20.9951 4.76079 20.4622 4.99741 19.938 5.23404C19.4047 5.47454 18.8746 5.71591 18.359 5.98679C17.8426 6.25923 17.3344 6.54698 16.8351 6.84966C16.8116 6.86379 16.7855 6.87229 16.7612 6.88641C16.2877 7.17299 15.8224 7.47298 15.3659 7.78604C14.6084 8.30729 13.8846 8.86879 13.1809 9.45679C12.9137 9.67853 12.6506 9.90502 12.3915 10.1362C12.3438 10.1793 12.2925 10.2212 12.2446 10.2647C11.9679 10.5163 11.7036 10.7738 11.4368 11.0359C11.3999 11.072 11.3637 11.1095 11.3266 11.1459C10.9619 11.5074 10.607 11.8675 10.2616 12.2475C10.0531 12.4765 9.856 12.7098 9.65575 12.9453C9.45588 13.1794 9.26075 13.4209 9.06825 13.6613C8.67931 14.1451 8.30579 14.6411 7.94825 15.1485C7.71912 15.4749 7.50325 15.8039 7.28737 16.1399C7.26575 16.1727 7.23513 16.1987 7.2135 16.2318C7.17017 16.2988 7.12729 16.3661 7.08488 16.4337C7.06862 16.4594 7.04612 16.4812 7.02987 16.5072C6.97775 16.5909 6.93337 16.6794 6.88312 16.7642C6.68883 17.092 6.49907 17.4226 6.31388 17.7557C6.26888 17.837 6.21162 17.9124 6.167 17.9944V18.0125C5.94375 18.4242 5.72825 18.8379 5.5245 19.261C5.32237 19.681 5.13775 20.099 4.95538 20.5279C4.904 20.6484 4.858 20.7738 4.80837 20.8952C4.69762 21.1639 4.58113 21.4304 4.47788 21.703C4.42088 21.8552 4.36725 22.0087 4.31262 22.162C4.26898 22.2841 4.22615 22.4065 4.18412 22.5292H4.16587C4.11075 22.6915 4.07138 22.8614 4.019 23.0249C4.00375 23.0729 3.99737 23.1237 3.98275 23.1718C3.97275 23.2034 3.95562 23.2319 3.94625 23.2637C3.88287 23.4769 3.82438 23.6914 3.76262 23.9062V23.9245C3.75325 23.95 3.73325 23.972 3.72625 23.998C3.70387 24.0762 3.69275 24.158 3.671 24.2368C3.60287 24.4862 3.53088 24.7374 3.46913 24.9894C3.45088 25.0632 3.43163 25.1362 3.41388 25.2098C3.391 25.3065 3.38037 25.4065 3.35862 25.5035C3.27105 25.8935 3.19149 26.2853 3.12 26.6785C3.1095 26.7344 3.093 26.788 3.083 26.8439C3.07662 26.8685 3.06887 26.8927 3.06475 26.9173C3.00837 27.2415 2.96375 27.5625 2.91788 27.8904C2.91788 27.9092 2.902 27.9263 2.89975 27.9457C2.88262 28.0697 2.86038 28.1882 2.8445 28.3128H2.86262C2.81095 28.728 2.76811 29.1443 2.73412 29.5613C2.72787 29.6042 2.7195 29.6468 2.716 29.6898H2.69775C2.67775 29.9445 2.6725 30.2042 2.6615 30.461C2.6615 30.4734 2.662 30.4857 2.6615 30.4974C2.66112 30.5037 2.66162 30.5098 2.6615 30.5157C2.63675 31.0103 2.625 31.5019 2.625 32.0028V32.021C2.62525 32.5218 2.63675 33.0135 2.66138 33.5082C2.66163 33.5144 2.66113 33.5205 2.66138 33.5264C2.679 33.8949 2.70375 34.2633 2.73475 34.6279C2.74475 34.7442 2.76063 34.86 2.77125 34.9767V35.0502C2.78175 35.1608 2.79525 35.2714 2.8075 35.3808C2.83287 35.6033 2.86862 35.8217 2.89937 36.0417C2.92475 36.2257 2.94413 36.4097 2.97288 36.5924C2.97913 36.6289 2.98525 36.666 2.991 36.7027C3.05975 37.131 3.12437 37.5475 3.21137 37.9695C3.30575 38.4245 3.40825 38.8813 3.5235 39.3283C3.52975 39.3354 3.53813 39.3394 3.54163 39.3464V39.3647C3.6495 39.7798 3.76537 40.1867 3.89037 40.5948C3.90575 40.6448 3.92988 40.6917 3.94575 40.7417C4.06275 41.1117 4.1835 41.4789 4.31287 41.8433C4.32875 41.8874 4.35225 41.9279 4.36812 41.9718C4.4075 42.0809 4.43763 42.1937 4.47813 42.3023C4.54986 42.4927 4.62332 42.6825 4.6985 42.8715C4.77425 43.0615 4.85788 43.2527 4.93725 43.4405C5.12237 43.8798 5.31826 44.3145 5.52475 44.7442C5.70238 45.1142 5.88287 45.4854 6.07562 45.8457C6.10538 45.9015 6.13688 45.9557 6.16738 46.011V46.0292C6.33463 46.3372 6.504 46.6275 6.6815 46.9288C6.74538 47.0363 6.81862 47.1355 6.8835 47.2409C7.04187 47.498 7.19488 47.7572 7.36088 48.0122C7.39687 48.0673 7.43462 48.1222 7.47087 48.1773C7.61962 48.4023 7.77537 48.6177 7.93 48.8383C7.9975 48.9355 8.063 49.0355 8.132 49.132C8.2395 49.2818 8.352 49.425 8.46237 49.5727C8.62237 49.7874 8.77425 50.006 8.93987 50.2153C8.95862 50.2388 8.97675 50.2647 8.99475 50.2888C9.08388 50.401 9.17938 50.5083 9.27013 50.6192C9.31613 50.6762 9.37012 50.7279 9.417 50.7844C9.54762 50.9417 9.66825 51.1073 9.80262 51.2619C9.95087 51.4327 10.1108 51.591 10.2615 51.7575C10.4039 51.9147 10.5369 52.0803 10.6839 52.2349C10.6982 52.2508 10.7235 52.2562 10.7389 52.2719C10.901 52.4419 11.0685 52.6014 11.2346 52.7675C11.3465 52.8819 11.4496 53.0049 11.5651 53.1163C11.6389 53.1888 11.7101 53.2654 11.7855 53.3367C11.9332 53.4768 12.0913 53.606 12.2443 53.7407C12.3746 53.8552 12.4998 53.9753 12.63 54.0894C12.6389 54.0949 12.6416 54.1019 12.648 54.1077C12.7566 54.2028 12.8685 54.2894 12.9785 54.383C13.1431 54.523 13.3064 54.6688 13.4742 54.8053C13.7426 55.0244 14.0244 55.238 14.3004 55.4479C14.3561 55.4904 14.4097 55.5348 14.4655 55.5765C14.5006 55.6024 14.5404 55.624 14.5759 55.6499C14.9051 55.893 15.2275 56.1364 15.5671 56.3659C15.911 56.6 16.2599 56.8266 16.6138 57.0453C16.6328 57.057 16.6498 57.0705 16.6688 57.0817L16.7605 57.1369C16.9916 57.2774 17.223 57.4067 17.4583 57.5409C17.6341 57.6412 17.813 57.7369 17.9907 57.8347C18.1011 57.8954 18.2095 57.9595 18.3213 58.0183C18.6126 58.172 18.905 58.3148 19.2025 58.4589C19.2195 58.467 19.2402 58.4689 19.2575 58.4772C19.4524 58.57 19.6481 58.663 19.845 58.7525C19.9869 58.8172 20.1244 58.892 20.2671 58.9545C20.363 58.9963 20.4634 59.0269 20.5609 59.0645C20.6484 59.0982 20.7318 59.1392 20.818 59.1749C21.1095 59.2949 21.403 59.4127 21.6994 59.5237C21.766 59.5489 21.8343 59.5724 21.9013 59.5972C21.9193 59.6034 21.9382 59.6088 21.9562 59.6153C21.9688 59.6215 21.9805 59.6288 21.9931 59.6335C22.2966 59.7435 22.6031 59.8455 22.9111 59.9455C22.9959 59.973 23.0833 59.992 23.1682 60.019L23.407 60.0924C23.5604 60.1399 23.711 60.1949 23.8659 60.2393C24.1278 60.3147 24.3906 60.3915 24.6554 60.4597C25.0437 60.5599 25.4361 60.6507 25.8304 60.735C25.8854 60.7468 25.9404 60.7603 25.9956 60.7715C26.0631 60.7857 26.1304 60.795 26.1976 60.8078C26.6372 60.8962 27.0732 60.9783 27.5196 61.0465C27.92 61.1079 28.3259 61.1485 28.7314 61.1934C28.7746 61.1997 28.8169 61.2075 28.8598 61.2117C28.9694 61.2233 29.0805 61.2379 29.1904 61.2479C29.2641 61.2553 29.3376 61.2604 29.4107 61.2662C29.6914 61.2909 29.9722 61.3049 30.2551 61.3214C30.3345 61.3268 30.4145 61.3355 30.4939 61.3397C30.6405 61.3469 30.7875 61.3525 30.9346 61.3578C31.29 61.3708 31.6409 61.376 31.9995 61.376C32.5065 61.376 33.0043 61.3648 33.505 61.339C33.9999 61.3143 34.4856 61.278 34.9738 61.2289H35.01C35.3515 61.1937 35.7 61.1469 36.038 61.1004C36.2772 61.0667 36.516 61.03 36.7542 60.9902C36.8406 60.9762 36.9252 60.9685 37.0111 60.9539C37.1225 60.9344 37.2306 60.9192 37.3416 60.8985C37.7016 60.8323 38.0695 60.7578 38.4249 60.6783C38.4986 60.6618 38.572 60.64 38.6452 60.623C38.8494 60.576 39.0498 60.525 39.2511 60.4762C39.2944 60.4657 39.3368 60.4503 39.3796 60.4398C39.44 60.4244 39.5031 60.4192 39.5633 60.4034C39.6798 60.3722 39.7961 60.344 39.912 60.3115C40.0164 60.2828 40.1201 60.25 40.2241 60.2198C40.3975 60.1692 40.5662 60.1074 40.7383 60.0545C40.8659 60.0152 40.997 59.9858 41.1237 59.9443C41.1364 59.9389 41.1471 59.9303 41.1608 59.9262C41.4736 59.8234 41.7886 59.7087 42.097 59.5957L42.3908 59.4854C42.502 59.4432 42.6109 59.4003 42.7212 59.3569C43.111 59.2042 43.4966 59.03 43.878 58.8612C43.9384 58.8349 44.0016 58.8149 44.0616 58.7878L44.2269 58.7144C44.7169 58.4892 45.2005 58.2504 45.6772 57.9984C46.7422 57.4372 47.7609 56.8088 48.7435 56.1255C49.0221 55.9318 49.298 55.741 49.5698 55.538L49.79 55.3728C49.8413 55.3334 49.8854 55.284 49.9369 55.2443C50.2262 55.0205 50.5191 54.799 50.7998 54.5649C51.4283 54.0396 52.0347 53.4883 52.6175 52.9125C52.649 52.882 52.6788 52.8515 52.7093 52.8207C52.7273 52.8025 52.7463 52.7844 52.7643 52.7655C53.0646 52.4659 53.3584 52.1599 53.6455 51.8475C53.6753 51.8158 53.7085 51.7878 53.7373 51.7557C54.3113 51.1243 54.8535 50.4525 55.3713 49.7728C55.6427 49.4178 55.9059 49.0566 56.1608 48.6895C56.4536 48.2664 56.7347 47.843 57.0054 47.4043C57.0405 47.3484 57.081 47.2949 57.1155 47.239C57.2149 47.0755 57.313 46.9089 57.4092 46.7433C57.5424 46.5237 57.672 46.3075 57.7949 46.0824C57.8056 46.063 57.8211 46.0465 57.8319 46.0272V46.0089C58.0644 45.5808 58.2811 45.1462 58.4927 44.7054C58.6877 44.298 58.885 43.8742 59.0619 43.4569V43.4387C59.0853 43.3834 59.1124 43.3287 59.1357 43.2734C59.2979 42.8854 59.451 42.4936 59.5949 42.0984C59.6435 41.9654 59.6769 41.8284 59.7233 41.6945C59.8126 41.4387 59.8984 41.1816 59.9804 40.9233C60.1079 40.5227 60.2369 40.1195 60.3475 39.7117C60.4572 39.3073 60.5488 38.8924 60.6413 38.4814C60.7496 38.0007 60.8505 37.5204 60.935 37.0309V37.0128C61.0035 36.6155 61.0664 36.2219 61.1188 35.8194C61.1313 35.7214 61.1439 35.6238 61.1548 35.5257C61.2079 35.0779 61.2501 34.6207 61.2831 34.1669C61.3336 33.4748 61.3732 32.7785 61.375 32.0739V32.0005C61.375 30.1414 61.1911 28.329 60.8609 26.5659C60.8312 26.4073 60.8015 26.246 60.7691 26.0884C60.7366 25.9287 60.6944 25.7699 60.6589 25.6112C60.2514 23.7762 59.6845 21.993 58.9514 20.305C58.8892 20.1617 58.8151 20.0243 58.7495 19.8828C58.6561 19.6815 58.5697 19.4768 58.474 19.2769C58.456 19.2398 58.4362 19.204 58.419 19.1667V19.1483C58.2318 18.762 58.0345 18.3869 57.8315 18.01V17.9917C57.6354 17.6307 57.4179 17.2784 57.2072 16.9267C57.1775 16.8777 57.1451 16.8288 57.1155 16.7799C57.1065 16.7762 57.1245 16.7643 57.1155 16.7615C56.926 16.4497 56.7286 16.1478 56.528 15.8435C56.0244 15.0782 55.4852 14.3369 54.9123 13.622C54.3695 12.9462 53.786 12.3007 53.1865 11.6758C53.1685 11.6572 53.1495 11.6393 53.1315 11.6208L53.0946 11.584C52.795 11.2744 52.4895 10.9805 52.1766 10.6843C51.2622 9.81879 50.2952 9.00416 49.2756 8.26079C48.6179 7.78116 47.9536 7.32691 47.2561 6.90204C47.2471 6.89804 47.2453 6.88804 47.2381 6.88379C46.6896 6.55054 46.1203 6.24504 45.549 5.94754C45.1196 5.72379 44.6869 5.50754 44.2455 5.30479C43.8062 5.10316 43.3555 4.91604 42.9051 4.73566C42.8926 4.73029 42.8809 4.72229 42.8683 4.71729C41.5139 4.17729 40.1086 3.73091 38.6637 3.39541C38.615 3.38404 38.5661 3.37004 38.5169 3.35866C38.3409 3.31866 38.1616 3.28529 37.9844 3.24854C37.7281 3.19563 37.471 3.14667 37.2132 3.10166C36.508 2.97516 35.8051 2.86466 35.0835 2.78954C34.6069 2.73979 34.116 2.68754 33.633 2.66091C33.597 2.65916 33.5591 2.66279 33.523 2.66091H33.5049C33.0034 2.63595 32.5014 2.62374 31.9994 2.62429L32.0006 2.62691ZM30.0544 5.34429C30.8475 5.44304 31.6406 5.55054 32.4412 5.65641C35.1999 6.02091 37.8181 6.35454 40.2811 6.57441C42.8356 7.40566 45.2161 8.62103 47.368 10.1363C45.3377 10.2695 43.1765 10.3217 40.887 10.228C37.8321 10.0993 34.6558 9.74641 31.4865 9.32841C29.2465 9.03291 27.133 8.71866 25.0971 8.46541C23.4919 8.26527 21.8818 8.10613 20.2684 7.98816C23.2609 6.52341 26.5621 5.59541 30.0544 5.34429ZM19.5156 11.5317C21.5702 11.5557 23.7001 11.6898 25.8682 11.8988C28.0364 12.1079 30.224 12.3953 32.4412 12.6883C35.5783 13.1029 38.5406 13.4884 41.2909 13.6982C44.3317 13.9342 47.1924 13.9688 49.7734 13.9C50.4128 13.883 51.0209 13.8572 51.6094 13.8267C52.3639 14.6402 53.0527 15.5128 53.7024 16.4154C52.6177 16.6094 51.4781 16.7892 50.2139 16.9295C47.434 17.2383 44.2719 17.3985 40.887 17.26C37.8321 17.1313 34.6558 16.7784 31.4865 16.3603C29.2465 16.0649 27.133 15.7505 25.0971 15.4974C23.0612 15.2443 21.1089 15.0558 19.277 14.9467C17.9779 14.8658 16.7196 14.8269 15.5131 14.8182C14.3066 14.8094 13.1487 14.8307 12.0614 14.8732C11.8412 14.8822 11.6491 14.8992 11.4373 14.9099C12.394 13.7607 13.461 12.6894 14.5951 11.7153C16.2316 11.5783 17.8736 11.517 19.5158 11.5315L19.5156 11.5317ZM19.5156 18.5635C21.5702 18.5875 23.7001 18.7218 25.8682 18.9308C28.0364 19.1398 30.224 19.4273 32.4412 19.7203C35.5783 20.1349 38.5406 20.5203 41.2909 20.73C44.3317 20.9662 47.1924 21.0007 49.7734 20.932C52.188 20.8678 54.326 20.7248 56.1626 20.5648C56.5018 21.2798 56.8232 22.0017 57.0989 22.7498C55.2049 23.2273 52.8944 23.682 50.2139 23.9798C47.434 24.2884 44.2719 24.4305 40.887 24.2919C40.378 24.2705 39.8607 24.251 39.3446 24.2185C37.4242 22.4052 34.8503 21.2809 32.0006 21.2809C30.0374 21.2809 28.2037 21.8102 26.6211 22.7314C26.1136 22.6606 25.6056 22.5933 25.0971 22.5294C23.0611 22.2763 21.1089 22.0878 19.277 21.9787C17.9779 21.8978 16.7196 21.8589 15.5131 21.85C14.3066 21.8412 13.1487 21.8625 12.0614 21.905C10.1907 21.9785 8.55487 22.1194 7.10413 22.254C7.44975 21.3719 7.84538 20.517 8.27913 19.6835C9.28487 19.4595 10.3525 19.2464 11.5474 19.0777C13.8895 18.7469 16.5953 18.5364 19.5158 18.5635H19.5156ZM19.5156 25.5955C20.7434 25.6097 22.0056 25.6738 23.2794 25.7608C22.5462 26.7842 22.0017 27.946 21.6637 29.1942C20.8693 29.1189 20.0736 29.0577 19.277 29.0104C16.6788 28.8488 14.2361 28.8517 12.0614 28.9372C9.88662 29.0227 7.96763 29.2029 6.36975 29.3594C6.00787 29.3947 5.7215 29.4184 5.39663 29.4512C5.46413 28.7369 5.56775 28.0365 5.69037 27.3398C7.2745 26.8845 9.23875 26.4355 11.5474 26.1097C13.8895 25.7789 16.5953 25.5683 19.5158 25.5955H19.5156ZM58.3291 27.3948C58.4429 28.0489 58.521 28.7083 58.5861 29.3778C58.1911 29.4935 57.7728 29.6099 57.3194 29.7265C55.388 30.2234 52.9939 30.7029 50.2139 31.0118C47.9356 31.2648 45.3906 31.4083 42.6864 31.3789C42.6133 30.1178 42.3314 28.9243 41.86 27.8172C44.6856 28.0143 47.3566 28.0282 49.7733 27.964C52.3541 27.8953 54.6526 27.7328 56.5666 27.56C57.2449 27.4988 57.7675 27.4474 58.3291 27.3948ZM19.5158 32.6275C20.1066 32.6347 20.7114 32.6745 21.3149 32.7009C21.396 33.9647 21.6965 35.1559 22.1779 36.2628C21.1841 36.1678 20.2129 36.0982 19.277 36.0425C16.6788 35.8809 14.2361 35.8837 12.0614 35.969C9.88662 36.0544 7.96763 36.2165 6.36975 36.3729C6.071 36.4023 5.885 36.4252 5.65363 36.4464C5.54323 35.7889 5.4575 35.1274 5.39663 34.4634C5.47413 34.4394 5.53638 34.4135 5.617 34.39C7.21288 33.9279 9.205 33.4723 11.5474 33.1415C13.8897 32.8108 16.5953 32.6003 19.5158 32.6275ZM58.6229 34.39C58.5607 35.0968 58.4639 35.7933 58.3475 36.4832C58.0187 36.5798 57.6859 36.6827 57.3194 36.7769C55.388 37.2737 52.9939 37.7349 50.2139 38.0438C47.4339 38.3527 44.2719 38.4945 40.887 38.3558C40.8022 38.3495 40.7161 38.3418 40.63 38.3377C41.3944 37.2977 41.9866 36.1277 42.3375 34.8492C44.9849 35.021 47.4939 35.075 49.7733 35.0144C52.3541 34.9458 54.6526 34.7649 56.5666 34.5922C57.3704 34.5197 57.9766 34.453 58.6229 34.3902V34.39ZM19.5158 39.6594C21.2309 39.6794 23.0045 39.7813 24.8034 39.9349C26.7075 41.6654 29.2248 42.7257 32.0006 42.7257C33.86 42.7257 35.5986 42.2548 37.1231 41.422C38.5582 41.5938 39.952 41.7422 41.2909 41.8443C44.3317 42.0802 47.1924 42.0968 49.7734 42.0279C52.3544 41.959 54.6526 41.7965 56.5666 41.624L56.9704 41.587C56.6309 42.4718 56.2236 43.3208 55.7954 44.1574C54.1729 44.5174 52.3115 44.8424 50.2139 45.0755C47.434 45.384 44.2719 45.526 40.887 45.3875C37.8321 45.2589 34.6558 44.9058 31.4865 44.4879C29.2465 44.1924 27.133 43.8782 25.0971 43.625C23.0612 43.3719 21.1089 43.2015 19.277 43.0925C17.9779 43.0117 16.7196 42.9544 15.5131 42.9457C14.3066 42.9369 13.1487 42.9763 12.0614 43.0192C10.4671 43.0817 9.07037 43.1842 7.78337 43.2945C7.44625 42.5725 7.11987 41.8467 6.84713 41.0913C8.20025 40.7448 9.7655 40.4249 11.5474 40.1733C13.8895 39.8425 16.5953 39.632 19.5158 39.6592V39.6594ZM19.5158 46.6914C21.5703 46.7149 23.7001 46.8495 25.8682 47.0587C28.0364 47.2677 30.224 47.5733 32.4412 47.8665C35.5783 48.281 38.5406 48.6484 41.2909 48.8578C44.3317 49.094 47.1924 49.1285 49.7734 49.0599C50.7471 49.0338 51.7203 48.9909 52.6925 48.9313C51.7276 50.1081 50.6651 51.2014 49.5163 52.1995C46.9062 52.4548 43.9967 52.547 40.887 52.4198C37.8321 52.291 34.6558 51.9563 31.4865 51.5385C29.2465 51.2429 27.133 50.9103 25.0971 50.6573C23.0611 50.4039 21.1089 50.2155 19.277 50.1064C17.9779 50.0257 16.7196 50.0049 15.5131 49.9963C14.3788 49.9882 13.2935 49.9963 12.2634 50.0327C11.5113 49.2099 10.8159 48.3377 10.1704 47.4255C10.6152 47.349 11.0695 47.2727 11.5474 47.2053C13.8896 46.8744 16.5953 46.6638 19.5158 46.6912V46.6914ZM17.6796 53.7418C18.2774 53.7259 18.8961 53.7364 19.5158 53.7418C21.5703 53.7653 23.7001 53.8998 25.8682 54.1089C28.0364 54.3177 30.224 54.587 32.4412 54.88C35.5783 55.2948 38.5406 55.6803 41.2909 55.8899C42.1071 55.9533 42.8969 55.9954 43.6776 56.0368C40.3755 57.6443 36.7001 58.6017 32.8085 58.7173C32.3669 58.6622 31.9282 58.6103 31.4865 58.552C29.2465 58.2567 27.133 57.9605 25.0971 57.7075C24.8352 57.6747 24.5842 57.6462 24.326 57.6157C21.496 56.7688 18.8735 55.4524 16.5229 53.7784C16.905 53.7597 17.285 53.7519 17.6796 53.742V53.7418Z" fill="#B3D3F1"/>
</svg>
